<svg id="Layer_1" data-name="Layer 1" xmlns="http://www.w3.org/2000/svg" viewBox="0 0 283.56 90.4"><defs><style>.cls-1{fill:#13aa57;}.cls-2,.cls-4,.cls-5{isolation:isolate;}.cls-3{stroke:#fff;}.cls-3,.cls-4,.cls-5{stroke-linecap:round;stroke-linejoin:round;stroke-width:0.5px;}.cls-4{font-size:54px;}.cls-4,.cls-5{fill:#fff;stroke:#000;font-family:Poppins-Bold, Poppins;font-weight:700;}.cls-5{font-size:33px;}.cls-6{fill:#74bf77;}</style></defs><g id="loo"><path d="M237.59,41.94h0a.25.25,0,0,0,0-.5.25.25,0,0,0-.25.25.25.25,0,0,0,.25.25Z"/></g><g id="Path_56" data-name="Path 56"><path class="cls-1" d="M154.08,72.35c-2.29,0-4.16-1.32-4.16-2.95V25.2c0-1.63,1.87-2.95,4.16-2.95h117.8c2.3,0,4.16,1.32,4.16,2.95V69.4c0,1.63-1.86,2.95-4.16,2.95Z"/><path d="M271.88,22.5c2.16,0,3.91,1.21,3.91,2.7V69.4c0,1.49-1.75,2.7-3.91,2.7H154.08c-2.16,0-3.91-1.21-3.91-2.7V25.2c0-1.49,1.75-2.7,3.91-2.7h117.8m0-.5H154.08c-2.47,0-4.41,1.41-4.41,3.2V69.4c0,1.8,1.94,3.2,4.41,3.2h117.8c2.44,0,4.41-1.43,4.41-3.2V25.2c0-1.79-1.93-3.2-4.41-3.2Z"/></g><g class="cls-2"><path class="cls-3" d="M70.35,44.59H64.12a4.86,4.86,0,0,0-4.56-2.37c-3.63,0-6,2.57-6,6.6,0,4.29,2.44,6.8,6.5,6.8a5.56,5.56,0,0,0,5.62-4.09H58.47V47.37H70.75v5.24a11.34,11.34,0,0,1-11.15,8c-6.94,0-11.82-4.85-11.82-11.78S52.63,37,59.56,37C65.11,37,69.13,39.84,70.35,44.59Z"/><path class="cls-3" d="M79.53,60.44H73.88V42h5.65v3.07a6.85,6.85,0,0,1,5.77-3.27v6H83.75c-2.67,0-4.22.92-4.22,4.09Z"/><path class="cls-3" d="M96.19,60.7c-5.41,0-9.31-3.63-9.31-9.47s3.83-9.47,9.31-9.47,9.18,3.56,9.18,9.17a15.69,15.69,0,0,1-.1,1.65H92.5c.19,2.41,1.68,3.53,3.49,3.53a3,3,0,0,0,2.94-1.78h6C104.05,57.93,100.78,60.7,96.19,60.7ZM92.53,49.45h7.06a3.18,3.18,0,0,0-3.46-3.17A3.49,3.49,0,0,0,92.53,49.45Z"/><path class="cls-3" d="M116.52,60.7c-5.41,0-9.31-3.63-9.31-9.47s3.83-9.47,9.31-9.47,9.17,3.56,9.17,9.17a15.63,15.63,0,0,1-.09,1.65H112.82c.2,2.41,1.69,3.53,3.5,3.53a3,3,0,0,0,2.94-1.78h6C124.37,57.93,121.11,60.7,116.52,60.7Zm-3.66-11.25h7.06a3.19,3.19,0,0,0-3.47-3.17A3.49,3.49,0,0,0,112.86,49.45Z"/><path class="cls-3" d="M141.37,50.44c0-2.51-1.39-3.9-3.53-3.9s-3.53,1.39-3.53,3.9v10h-5.65V42h5.65v2.44a6.75,6.75,0,0,1,5.57-2.64c4.26,0,7.1,2.91,7.1,7.86V60.44h-5.61Z"/></g><text class="cls-4" transform="translate(148.86 60.44)"> </text><text class="cls-5" transform="translate(160.31 60.44)">House</text><g id="Group_246" data-name="Group 246"><g id="path32"><path class="cls-6" d="M29.12,47c-.51,0-1,0-1.51,0h0a25.33,25.33,0,0,1-6.2-1.4C13,42.47,7.52,35.16,7.52,27s5.5-15.56,14-18.67A29.48,29.48,0,0,1,26.34,7.1C27.5,7,28.66,7,29.8,7s2.3,0,3.44.14a24.45,24.45,0,0,1,9.57,3.56,28.07,28.07,0,0,1,5,4.47,22.49,22.49,0,0,1,1.75,2.58,19.65,19.65,0,0,1,2.3,6.17,30.78,30.78,0,0,1,0,6.22,20.13,20.13,0,0,1-4,8.76,29,29,0,0,1-4.67,4.26,24.27,24.27,0,0,1-9.56,3.72C32.1,47,30.6,47,29.12,47Zm1.61-6.29V37.92a.27.27,0,0,1,.21-.25l.32-.05a7.93,7.93,0,0,0,4.25-1.76,6.15,6.15,0,0,0,2.39-4.57c0-.65,0-1.09-.16-1.28s-.62-.22-1.26-.22a8.09,8.09,0,0,0-4.8,1.66L31,32a.27.27,0,0,1-.15.05l-.11,0a.24.24,0,0,1-.14-.23V25.11a.24.24,0,0,1,.22-.25l.78-.06A4.34,4.34,0,0,0,35,22.74c.29-.54.29-.54.33-3l0-2.33-1.84-.05a.26.26,0,0,1-.24-.25l-.06-3.84H31.7v3.89a.25.25,0,0,1-.25.25H28.27a.25.25,0,0,1-.25-.25V13.23h-1.5v3.89a.25.25,0,0,1-.25.25H24.38l0,2.16c0,2.67.15,3,.77,3.78a4.67,4.67,0,0,0,3.21,1.52h.46a.25.25,0,0,1,.25.25v2.48a.25.25,0,0,1-.15.23l-.1,0a.23.23,0,0,1-.16-.06l-.45-.37a7.46,7.46,0,0,0-4.91-1.84h-.22c-1,0-1,0-1.24.21s-.22.2-.17,1.21A6.4,6.4,0,0,0,25,32.23a9.51,9.51,0,0,0,3.19,1.05l.67.07a.25.25,0,0,1,.23.25v7.15Zm.41-4.43a.38.38,0,0,1-.29-.11.5.5,0,0,1-.11-.39h0a.28.28,0,0,1,0-.09,5.08,5.08,0,0,1,.89-2.22A6.07,6.07,0,0,1,34,31.65a4.28,4.28,0,0,1,1.9-.45h.25a.24.24,0,0,1,.23.27,5.09,5.09,0,0,1-.65,2,6.05,6.05,0,0,1-3.55,2.6l-.2.05A4.87,4.87,0,0,1,31.14,36.32ZM28.46,32a6,6,0,0,1-1-.19l0,0A5.64,5.64,0,0,1,25,30.41a5,5,0,0,1-1.6-2.63l-.14-.63a.28.28,0,0,1,0-.22.25.25,0,0,1,.2-.09h.31a6,6,0,0,1,2,.56,5.48,5.48,0,0,1,3.12,4,.62.62,0,0,1-.05.5.44.44,0,0,1-.35.13Zm1.48-8.49a21.63,21.63,0,0,1-2.28-.13,2.52,2.52,0,0,1-1.61-1.54,8.81,8.81,0,0,1-.15-1.75V18.92a.23.23,0,0,1,.08-.18.22.22,0,0,1,.17-.07l7.49,0a.24.24,0,0,1,.24.25v1.38c0,1.17,0,1.49-.29,1.93a2.46,2.46,0,0,1-1.47,1.11A20.46,20.46,0,0,1,29.94,23.51Z"/><path d="M29.8,7.2c1.14,0,2.28,0,3.42.14a24.38,24.38,0,0,1,9.46,3.52,28.11,28.11,0,0,1,5,4.42,24.18,24.18,0,0,1,1.73,2.54,19.55,19.55,0,0,1,2.26,6.09,30.19,30.19,0,0,1,0,6.16,19.81,19.81,0,0,1-4,8.63A28.46,28.46,0,0,1,43,42.91a24.1,24.1,0,0,1-9.45,3.67c-1.47.14-2.95.21-4.43.21-.5,0-1,0-1.5,0h0a25.49,25.49,0,0,1-6.16-1.4C13.13,42.27,7.77,35.07,7.77,27S13.18,11.64,21.61,8.55a30.31,30.31,0,0,1,4.77-1.21c1.14-.09,2.28-.14,3.42-.14m-1.53,9.92V13h-2v4.14H24.12l.05,2.41c0,2.65.13,3,.82,3.94a5,5,0,0,0,3.4,1.61h.47v2.48l-.44-.37a7.73,7.73,0,0,0-5.08-1.9h-.23c-1,0-1.12,0-1.4.28s-.3.3-.25,1.4a6.61,6.61,0,0,0,3.44,5.48,9.75,9.75,0,0,0,3.28,1.08l.68.07V41H31V37.92l.33-.05a8.33,8.33,0,0,0,4.36-1.81,6.43,6.43,0,0,0,2.48-4.76c.08-1.54-.13-1.76-1.67-1.76a8.29,8.29,0,0,0-4.95,1.71l-.66.53V25.11l.77-.06a4.59,4.59,0,0,0,3.55-2.18c.33-.6.33-.61.37-3.17l0-2.57-1,0-1,0,0-2.05,0-2h-2v4.14H28.27m-2.12,1.8,3.74,0,3.74,0v1.38c0,1.19,0,1.44-.25,1.8a2.19,2.19,0,0,1-1.32,1,19,19,0,0,1-2.12.12,21.21,21.21,0,0,1-2.25-.13h0a2.26,2.26,0,0,1-1.4-1.38,8.33,8.33,0,0,1-.14-1.66V18.92m-2.37,8.17a5.8,5.8,0,0,1,1.91.54,5.2,5.2,0,0,1,3,3.78c0,.29,0,.34-.15.34h-.05a4.88,4.88,0,0,1-.91-.18h0a5.45,5.45,0,0,1-2.42-1.33,4.71,4.71,0,0,1-1.52-2.51l-.15-.63h.31m12.11,4.36h.23a5,5,0,0,1-.62,1.94,5.83,5.83,0,0,1-3.39,2.48,7.5,7.5,0,0,1-1,.19c-.17,0-.15-.09-.15-.31h0a4.83,4.83,0,0,1,.84-2.1,5.8,5.8,0,0,1,2.27-1.78,4,4,0,0,1,1.8-.43M29.8,6.7c-1.15,0-2.31,0-3.46.14a30.72,30.72,0,0,0-4.89,1.24C12.83,11.23,7.27,18.65,7.27,27s5.5,15.68,14,18.85a25.94,25.94,0,0,0,6.26,1.42h.06c.51,0,1,0,1.52,0,1.49,0,3-.07,4.48-.21a24.32,24.32,0,0,0,9.67-3.76A28,28,0,0,0,48,39a20.35,20.35,0,0,0,4.11-8.87,30.85,30.85,0,0,0,0-6.3,20.1,20.1,0,0,0-2.33-6.29A22.89,22.89,0,0,0,48,15,28.87,28.87,0,0,0,43,10.45a24.71,24.71,0,0,0-9.68-3.6C32.11,6.75,31,6.7,29.8,6.7ZM32,13.48h1L33,15l0,2a.51.51,0,0,0,.49.5l1,0h.55l0,2.08c0,2.45,0,2.45-.3,2.94a4.09,4.09,0,0,1-3.16,1.92l-.78.06a.5.5,0,0,0-.45.5v6.67a.49.49,0,0,0,.28.45.42.42,0,0,0,.22.05.45.45,0,0,0,.31-.11l.66-.53A7.84,7.84,0,0,1,36.48,30c.25,0,.94,0,1.07.14s.11.84.1,1.1a5.93,5.93,0,0,1-2.28,4.38,7.78,7.78,0,0,1-4.11,1.71l-.36.06a.5.5,0,0,0-.42.49V40.5H29.36V33.6a.5.5,0,0,0-.45-.5L28.23,33a9.29,9.29,0,0,1-3.09-1A6.13,6.13,0,0,1,22,27,5.79,5.79,0,0,1,22,26l.09-.08c.15-.14.16-.15,1.07-.15h.23a7.28,7.28,0,0,1,4.75,1.77l.44.38a.52.52,0,0,0,.33.12.48.48,0,0,0,.5-.5V25.08a.5.5,0,0,0-.5-.5h-.47a4.45,4.45,0,0,1-3-1.45c-.56-.74-.64-1-.69-3.61l0-1.9h1.64a.5.5,0,0,0,.5-.5V13.48h1v3.64a.5.5,0,0,0,.5.5h3.18a.5.5,0,0,0,.5-.5V13.48Zm-5.8,4.94a.5.5,0,0,0-.35.14.48.48,0,0,0-.15.36v1.17a8.62,8.62,0,0,0,.15,1.75.19.19,0,0,0,0,.08,2.72,2.72,0,0,0,1.71,1.68.32.32,0,0,0,.14,0,21.44,21.44,0,0,0,2.27.13,19.73,19.73,0,0,0,2.17-.12h.08a2.7,2.7,0,0,0,1.61-1.22,3.5,3.5,0,0,0,.33-2.06V19a.49.49,0,0,0-.49-.5l-3.74,0-3.74,0Zm-2.37,8.17h-.31a.51.51,0,0,0-.49.61l.15.64a5.21,5.21,0,0,0,1.69,2.77A5.81,5.81,0,0,0,27.35,32l.07,0a6.81,6.81,0,0,0,1,.2h.1a.67.67,0,0,0,.54-.22.81.81,0,0,0,.1-.71,5.71,5.71,0,0,0-3.26-4.15,6.45,6.45,0,0,0-2.07-.58ZM35.89,31h0a4.55,4.55,0,0,0-2,.48,6.17,6.17,0,0,0-2.44,1.92,5.24,5.24,0,0,0-.94,2.34.38.38,0,0,0,0,.15.71.71,0,0,0,.18.55.64.64,0,0,0,.47.18,4.56,4.56,0,0,0,.88-.16l.2,0a6.38,6.38,0,0,0,3.7-2.7,5.54,5.54,0,0,0,.7-2.16.53.53,0,0,0-.12-.38.47.47,0,0,0-.35-.17Z"/></g></g></svg>